<svg width="448" height="448" viewBox="0 0 448 448" fill="none" xmlns="http://www.w3.org/2000/svg">
<path d="M416 128H352V123.5C352 55 297 0 228.5 0H220.5C152 0 96 55 96 123.5V128H32L0 448H448L416 128ZM128 123.5C128 72.8 169.8 32 220.5 32H228.5C279.2 32 320 72.8 320 123.5V128H128V123.5ZM35.8 416L60.7 160H96V196.3C86.4 201.8 80 212.2 80 224C80 241.7 94.3 256 112 256C129.7 256 144 241.7 144 224C144 212.2 137.6 201.8 128 196.3V160H320V196.3C310.4 201.8 304 212.2 304 224C304 241.7 318.3 256 336 256C353.7 256 368 241.7 368 224C368 212.2 361.6 201.8 352 196.3V160H387.4L412.3 416H35.8Z" fill="#6F6F73"/>
</svg>
